<svg xmlns="http://www.w3.org/2000/svg" version="1.1" xmlns:xlink="http://www.w3.org/1999/xlink" xmlns:svgjs="http://svgjs.dev/svgjs" width="2000" height="560" viewBox="0 0 2000 560"><g transform="matrix(1,0,0,1,-1.2121212121212466,2.045971420185424)"><svg viewBox="0 0 396 111" data-background-color="#ffffff" preserveAspectRatio="xMidYMid meet" height="560" width="2000" xmlns="http://www.w3.org/2000/svg" xmlns:xlink="http://www.w3.org/1999/xlink"><g id="tight-bounds" transform="matrix(1,0,0,1,0.2400000000000091,0.5007066500935196)"><svg viewBox="0 0 395.52 109.99858669981298" height="109.99858669981298" width="395.52"><g><svg viewBox="0 0 524.7806019842384 145.947422496317" height="109.99858669981298" width="395.52"><g></g><g transform="matrix(1,0,0,1,129.26060198423835,36.807290115316235)"><svg viewBox="0 0 395.52000000000004 72.33284226568452" height="72.33284226568452" width="395.52000000000004"><g id="textblocktransform"><svg viewBox="0 0 395.52000000000004 72.33284226568452" height="72.33284226568452" width="395.52000000000004" id="textblock"><g><svg viewBox="0 0 395.52000000000004 72.33284226568452" height="72.33284226568452" width="395.52000000000004"><g transform="matrix(1,0,0,1,0,0)"><svg width="395.52000000000004" viewBox="2.75 -35.75 196.84 36" height="72.33284226568452" data-palette-color="url(#37801793-4f83-4418-8a2d-78232ba8818f)"></svg></g></svg></g></svg></g></svg></g><g><svg viewBox="0 0 88.58545547979821 145.947422496317" height="145.947422496317" width="88.58545547979821"><g><svg xmlns="http://www.w3.org/2000/svg" xmlns:xlink="http://www.w3.org/1999/xlink" version="1.1" x="0" y="0" viewBox="22.745 5.096 54.50999999999999 89.807" enable-background="new 0 0 100 100" xml:space="preserve" height="145.947422496317" width="88.58545547979821" class="icon-icon-0" data-fill-palette-color="accent" id="icon-0"><g fill="#301c3b" data-fill-palette-color="accent"><path d="M66.937 6.331A2.99 2.99 0 0 0 64.522 5.096H54.744C53.859 5.096 53.072 5.486 52.523 6.096H35.475C28.455 6.096 22.745 11.807 22.745 18.826V82.173C22.745 89.193 28.456 94.903 35.475 94.903H64.535C71.549 94.903 77.255 89.192 77.255 82.173V18.826C77.255 12.629 72.806 7.459 66.937 6.331M71.255 82.174C71.255 85.885 68.24 88.904 64.535 88.904H35.475A6.74 6.74 0 0 1 28.745 82.174V18.826A6.74 6.74 0 0 1 35.475 12.096H64.535C68.241 12.096 71.255 15.115 71.255 18.826z" fill="#000000" data-fill-palette-color="accent"></path><path d="M65.183 65.587H34.817A3 3 0 1 0 34.817 71.587H65.183A3 3 0 1 0 65.183 65.587" fill="#000000" data-fill-palette-color="accent"></path><path d="M50 76.223C47.308 76.223 45.118 78.413 45.118 81.105S47.308 85.987 50 85.987 54.882 83.797 54.882 81.105 52.692 76.223 50 76.223M50 82.223A1.12 1.12 0 0 1 50 79.987 1.12 1.12 0 0 1 50 82.223" fill="#000000" data-fill-palette-color="accent"></path></g></svg></g></svg></g></svg></g><defs></defs><mask id="3e806ab3-a02f-457e-867c-7f645e7d4168"><g id="SvgjsG2963"><svg viewBox="0 0 395.52 109.99858669981298" height="109.99858669981298" width="395.52"><g><svg viewBox="0 0 524.7806019842384 145.947422496317" height="109.99858669981298" width="395.52"><g><rect width="6.523050363012648" height="86.79941071882142" x="105.66150355051195" y="29.574005888747784" fill="white" opacity="1" stroke-width="0" stroke="transparent" fill-opacity="1" class="rect-yte-0" rx="1%" id="SvgjsRect2962" data-palette-color="url(#37801793-4f83-4418-8a2d-78232ba8818f)"></rect></g><g transform="matrix(1,0,0,1,129.26060198423835,36.807290115316235)"><svg viewBox="0 0 395.52000000000004 72.33284226568452" height="72.33284226568452" width="395.52000000000004"><g id="SvgjsG2961"><svg viewBox="0 0 395.52000000000004 72.33284226568452" height="72.33284226568452" width="395.52000000000004" id="SvgjsSvg2960"><g><svg viewBox="0 0 395.52000000000004 72.33284226568452" height="72.33284226568452" width="395.52000000000004"><g transform="matrix(1,0,0,1,0,0)"><svg width="395.52000000000004" viewBox="2.75 -35.75 196.84 36" height="72.33284226568452" data-palette-color="url(#37801793-4f83-4418-8a2d-78232ba8818f)"><path d="M10 0L2.75 0 2.75-35.75 10-35.75 10-25.75 27.3-25.75Q31.7-25.75 34.02-23.68 36.35-21.6 36.35-17.75L36.35-17.75Q36.35-11.45 30.35-10.25L30.35-10.25 36.45 0 28.3 0 22.4-9.95 10-9.95 10 0ZM26.95-20.05L26.95-20.05 10-20.05 10-15.65 26.95-15.65Q27.95-15.65 28.53-16.25 29.1-16.85 29.1-17.9L29.1-17.9Q29.1-20.05 26.95-20.05ZM74.25 0L47.8 0Q43.75 0 41.6-2.05 39.45-4.1 39.45-7.9L39.45-7.9Q39.45-11.65 41.6-13.7 43.75-15.75 47.8-15.75L47.8-15.75 67-15.75 67-16.95Q67-20 64-20L64-20 42.8-20 42.8-25.75 65.9-25.75Q70.45-25.75 72.35-23.68 74.25-21.6 74.25-17.85L74.25-17.85 74.25 0ZM49.1-5.75L49.1-5.75 67-5.75 67-10 49.1-10Q48.15-10 47.62-9.43 47.1-8.85 47.1-7.9L47.1-7.9Q47.1-6.95 47.62-6.35 48.15-5.75 49.1-5.75ZM104.7 0.25L78.9 0.25 78.9-5.5 103.4-5.5Q105.5-5.5 105.5-7.85L105.5-7.85Q105.5-10.15 103.4-10.15L103.4-10.15 87.55-10.15Q83.09-10.15 80.8-12.18 78.5-14.2 78.5-18L78.5-18Q78.5-21.85 80.82-23.93 83.15-26 87.55-26L87.55-26 110.34-26 110.34-20.25 87.9-20.25Q85.75-20.25 85.75-18.15L85.75-18.15Q85.75-17.1 86.34-16.5 86.95-15.9 87.9-15.9L87.9-15.9 104.7-15.9Q108.59-15.9 110.67-13.88 112.75-11.85 112.75-8L112.75-8Q112.75-4.1 110.65-1.93 108.55 0.25 104.7 0.25L104.7 0.25ZM150.44 0.25L130.19 0.25Q123.49 0.25 119.74-3.08 115.99-6.4 115.99-12.85L115.99-12.85Q115.99-19.35 119.74-22.68 123.49-26 130.19-26L130.19-26 142.69-26Q147.09-26 149.42-23.93 151.74-21.85 151.74-18L151.74-18Q151.74-10.15 142.69-10.15L142.69-10.15 123.79-10.15Q124.84-5.5 130.19-5.5L130.19-5.5 150.44-5.5 150.44 0.25ZM142.34-20.25L130.19-20.25Q125.04-20.25 123.84-15.9L123.84-15.9 142.34-15.9Q143.34-15.9 143.92-16.5 144.49-17.1 144.49-18.15L144.49-18.15Q144.49-20.25 142.34-20.25L142.34-20.25ZM163.79 0L153.99 0 167.39-17.85 153.99-35.75 163.74-35.75 174.49-21.1 179.09-21.1 189.84-35.75 199.59-35.75 186.19-17.85 199.59 0 189.79 0 179.09-14.6 174.49-14.6 163.79 0Z" opacity="1" transform="matrix(1,0,0,1,0,0)" fill="white" class="wordmark-text-0" id="SvgjsPath2959"></path></svg></g></svg></g></svg></g></svg></g><g><svg viewBox="0 0 88.58545547979821 145.947422496317" height="145.947422496317" width="88.58545547979821"><g><svg xmlns="http://www.w3.org/2000/svg" xmlns:xlink="http://www.w3.org/1999/xlink" version="1.1" x="0" y="0" viewBox="22.745 5.096 54.50999999999999 89.807" enable-background="new 0 0 100 100" xml:space="preserve" height="145.947422496317" width="88.58545547979821" class="icon-icon-0" data-fill-palette-color="accent" id="SvgjsSvg2958"><g fill="black"><path d="M66.937 6.331A2.99 2.99 0 0 0 64.522 5.096H54.744C53.859 5.096 53.072 5.486 52.523 6.096H35.475C28.455 6.096 22.745 11.807 22.745 18.826V82.173C22.745 89.193 28.456 94.903 35.475 94.903H64.535C71.549 94.903 77.255 89.192 77.255 82.173V18.826C77.255 12.629 72.806 7.459 66.937 6.331M71.255 82.174C71.255 85.885 68.24 88.904 64.535 88.904H35.475A6.74 6.74 0 0 1 28.745 82.174V18.826A6.74 6.74 0 0 1 35.475 12.096H64.535C68.241 12.096 71.255 15.115 71.255 18.826z" fill="black"></path><path d="M65.183 65.587H34.817A3 3 0 1 0 34.817 71.587H65.183A3 3 0 1 0 65.183 65.587" fill="black"></path><path d="M50 76.223C47.308 76.223 45.118 78.413 45.118 81.105S47.308 85.987 50 85.987 54.882 83.797 54.882 81.105 52.692 76.223 50 76.223M50 82.223A1.12 1.12 0 0 1 50 79.987 1.12 1.12 0 0 1 50 82.223" fill="black"></path></g></svg></g></svg></g></svg></g><defs><mask></mask></defs></svg><rect width="395.52" height="109.99858669981298" fill="black" stroke="none" visibility="hidden"></rect></g></mask><linearGradient x1="0.054" x2="0.941" y1="0.5" y2="0.5" id="37801793-4f83-4418-8a2d-78232ba8818f"><stop stop-color="#26282a" offset="0"></stop><stop stop-color="#9e9fa0" offset="0.498"></stop><stop stop-color="#26282a" offset="1"></stop></linearGradient><rect width="395.52" height="110.01879644529127" fill="#000000" mask="url(#3e806ab3-a02f-457e-867c-7f645e7d4168)" data-fill-palette-color="primary"></rect></svg><rect width="395.52" height="109.99858669981298" fill="none" stroke="none" visibility="hidden"></rect></g></svg></g></svg>